<svg width="159" height="165" viewBox="0 0 159 165" fill="none" xmlns="http://www.w3.org/2000/svg">
<mask id="mask0_51_741" style="mask-type:alpha" maskUnits="userSpaceOnUse" x="0" y="0" width="159" height="165">
<path fill-rule="evenodd" clip-rule="evenodd" d="M76.2399 6.48124e-06C121.67 1.03433e-05 158.499 36.8286 158.499 82.2589C158.499 113.396 141.198 140.493 115.685 154.461L72.0493 78.8814C89.0359 72.1167 106.735 68.6933 125.146 68.6114L121.755 33.754C107.025 33.5364 92.3043 35.443 77.5933 39.474C62.8822 43.505 48.757 49.429 35.2176 57.246C22.1906 64.7671 10.4514 73.5646 9.88032e-06 83.6385L2.00977e-05 0L76.2399 6.48124e-06ZM2.90813e-06 140.712L0 164.518H72.202L35.0821 100.224C20.7995 111.498 9.10544 124.994 2.90813e-06 140.712Z" fill="#D9D9D9"/>
</mask>
<g mask="url(#mask0_51_741)">
<circle cx="67.5086" cy="74.5869" r="107.263" transform="rotate(-39.3274 67.5086 74.5869)" fill="#3C52C9"/>
<circle cx="93.1609" cy="127.196" r="107.263" transform="rotate(-39.3274 93.1609 127.196)" fill="#4F7AD9"/>
<circle cx="101.352" cy="152.512" r="87.901" transform="rotate(-39.3274 101.352 152.512)" fill="#15C5C3"/>
<circle cx="57.8777" cy="177.903" r="107.263" transform="rotate(-39.3274 57.8777 177.903)" fill="#4CD7AE"/>
</g>
</svg>
